# xmcd CD database file
#
# Track frame offsets:
#	150
#	23458
#	45978
#	66218
#	81772
#	100412
#	119647
#	140696
#
# Disc length: 2114 seconds
#
# Revision: 0
# Processed by: cddbd v1.5.1PL0 Copyright (c) Steve Scherf et al.
# Submitted via: CDex 1.50
#
DISCID=66084008
DTITLE=Various Artist - Midnight Moves
DYEAR=2003
DGENRE=Jazz
TTITLE0=Spyro Gyra-Your Touch
TTITLE1=Philip Bailey-On The Red Clay
TTITLE2=Alexander Zonjic-This Is The day
TTITLE3=Roberto Perera-Remembering
TTITLE4=Marion Meadows-Yeah Baby
TTITLE5=Joe McBride-His Name
TTITLE6=Dave Love-Smooth Africa
TTITLE7=Gerald Veasley-Good Night Moon
EXTD=YEAR: 2003
EXTT0=
EXTT1=
EXTT2=
EXTT3=
EXTT4=
EXTT5=
EXTT6=
EXTT7=
PLAYORDER=
